<svg width="26" height="26" viewBox="0 0 26 26" version="1.1" xmlns="http://www.w3.org/2000/svg" xmlns:xlink="http://www.w3.org/1999/xlink">
<title>Vector</title>
<desc>Created using Figma</desc>
<g id="Canvas" transform="translate(-1380 -389)">
<g id="Vector">
<mask id="mask0_outline_ins">
<use xlink:href="#path0_fill" fill="white" transform="translate(1380 389)"/>
</mask>
<g mask="url(#mask0_outline_ins)">
<use xlink:href="#path1_stroke_2x" transform="translate(1380 389)" fill="#F2994A"/>
</g>
</g>
</g>
<defs>
<path id="path0_fill" d="M 25.7245 8.62876L 18.2958 0.308829C 18.112 0.102962 17.8945 5.38455e-08 17.643 5.38455e-08C 17.3915 5.38455e-08 17.1738 0.102962 16.9901 0.308829C 16.8063 0.514809 16.7143 0.758582 16.7143 1.0402L 16.7143 5.20017L 13.4643 5.20017C 6.56745 5.20017 2.33591 7.38314 0.768728 11.749C 0.256226 13.2005 0 15.0044 0 17.1603C 0 18.9585 0.61424 21.4013 1.84262 24.4889C 1.87159 24.5649 1.9222 24.6946 1.99487 24.8787C 2.06749 25.0628 2.13269 25.2253 2.19072 25.3662C 2.24896 25.5069 2.31188 25.6261 2.37951 25.7234C 2.49548 25.9077 2.63096 26 2.78576 26C 2.93084 26 3.04452 25.9459 3.1268 25.8376C 3.20887 25.7293 3.24998 25.5937 3.24998 25.4316C 3.24998 25.3339 3.23789 25.1905 3.21365 25.0008C 3.18946 24.8111 3.17731 24.6841 3.17731 24.619C 3.12888 23.8827 3.10469 23.2159 3.10469 22.6205C 3.10469 21.5264 3.18946 20.5459 3.35858 19.6793C 3.52796 18.8125 3.76248 18.0625 4.06241 17.4287C 4.36229 16.7946 4.74907 16.2479 5.22315 15.7875C 5.69703 15.327 6.2072 14.9507 6.7537 14.6581C 7.3003 14.3655 7.94351 14.1353 8.68347 13.9675C 9.42338 13.7996 10.1681 13.6831 10.9178 13.618C 11.6676 13.5529 12.5163 13.5206 13.4643 13.5206L 16.7143 13.5206L 16.7143 17.6807C 16.7143 17.9623 16.8061 18.2061 16.9898 18.4119C 17.1737 18.6175 17.3913 18.7206 17.6426 18.7206C 17.8941 18.7206 18.1118 18.6175 18.2958 18.4119L 25.7244 10.0917C 25.9082 9.88582 26 9.64216 26 9.36048C 26 9.07885 25.9082 8.83502 25.7245 8.62876Z"/>
<path id="path1_stroke_2x" d="M 25.7245 8.62876L 27.2182 7.29878L 27.2164 7.29671L 25.7245 8.62876ZM 18.2958 0.308829L 16.804 1.64086L 16.804 1.64088L 18.2958 0.308829ZM 16.9901 0.308829L 18.4824 1.64045L 18.4825 1.64025L 16.9901 0.308829ZM 16.7143 5.20017L 16.7143 7.20017L 18.7143 7.20017L 18.7143 5.20017L 16.7143 5.20017ZM 0.768728 11.749L -1.11369 11.0733L -1.11717 11.0831L 0.768728 11.749ZM 1.84262 24.4889L 3.71143 23.7765L 3.70629 23.763L 3.70095 23.7496L 1.84262 24.4889ZM 1.99487 24.8787L 3.85524 24.1446L 3.85522 24.1445L 1.99487 24.8787ZM 2.19072 25.3662L 0.341286 26.1275L 0.342885 26.1314L 2.19072 25.3662ZM 2.37951 25.7234L 4.07212 24.658L 4.048 24.6197L 4.02217 24.5825L 2.37951 25.7234ZM 3.1268 25.8376L 4.71942 27.0473L 4.72056 27.0458L 3.1268 25.8376ZM 3.21365 25.0008L 1.22971 25.2538L 1.22978 25.2543L 3.21365 25.0008ZM 3.17731 24.619L 5.17731 24.619L 5.17731 24.5533L 5.173 24.4878L 3.17731 24.619ZM 3.35858 19.6793L 1.3957 19.2957L 1.39561 19.2962L 3.35858 19.6793ZM 4.06241 17.4287L 5.87022 18.2841L 5.8704 18.2838L 4.06241 17.4287ZM 5.22315 15.7875L 6.61659 17.2222L 6.6169 17.2219L 5.22315 15.7875ZM 6.7537 14.6581L 7.6976 16.4214L 7.6976 16.4214L 6.7537 14.6581ZM 8.68347 13.9675L 9.12589 15.9179L 9.12606 15.9179L 8.68347 13.9675ZM 16.7143 13.5206L 18.7143 13.5206L 18.7143 11.5206L 16.7143 11.5206L 16.7143 13.5206ZM 16.9898 18.4119L 15.4977 19.7437L 15.4992 19.7454L 16.9898 18.4119ZM 18.2958 18.4119L 19.7861 19.7458L 19.7877 19.7439L 18.2958 18.4119ZM 25.7244 10.0917L 24.2325 8.75965L 24.2325 8.75968L 25.7244 10.0917ZM 26 9.36048L 28 9.36048L 28 9.36012L 26 9.36048ZM 27.2164 7.29671L 19.7877 -1.02322L 16.804 1.64088L 24.2327 9.96081L 27.2164 7.29671ZM 19.7877 -1.0232C 19.2661 -1.60739 18.5239 -2 17.643 -2L 17.643 2C 17.4864 2 17.31 1.96578 17.1395 1.8851C 16.9735 1.80655 16.8643 1.70841 16.804 1.64086L 19.7877 -1.0232ZM 17.643 -2C 16.7625 -2 16.0197 -1.60775 15.4977 -1.02259L 18.4825 1.64025C 18.4218 1.70833 18.3124 1.8066 18.1463 1.88516C 17.9758 1.96581 17.7995 2 17.643 2L 17.643 -2ZM 15.4979 -1.02279C 15.0958 -0.521654 14.7468 0.399555 14.7143 1.0402L 18.7143 1.0402C 18.7143 1.12113 18.7003 1.23088 18.6545 1.35208C 18.6086 1.47387 18.5442 1.57111 18.4824 1.64045L 15.4979 -1.02279ZM 14.7143 1.0402L 14.7143 5.20017L 18.7143 5.20017L 18.7143 1.0402L 14.7143 1.0402ZM 16.7143 3.20017L 13.4643 3.20017L 13.4643 7.20017L 16.7143 7.20017L 16.7143 3.20017ZM 13.4643 3.20017C 9.82988 3.20017 6.69878 3.77147 4.201 5.05994C 1.77394 6.35029 -0.168541 8.54692 -1.11367 11.0733L 2.65112 12.4247C 3.27318 10.5852 4.23006 9.50742 6.03478 8.61483C 7.76877 7.72036 10.2019 7.20017 13.4643 7.20017L 13.4643 3.20017ZM -1.11717 11.0831C -1.68633 12.7246 -1.99503 14.8635 -2 17.1603L 2 17.1603C 1.99503 15.1454 2.19878 13.6764 2.65462 12.4149L -1.11717 11.0831ZM -2 17.1603C -2 19.3433 -1.272 22.0705 -0.0157131 25.2283L 3.70095 23.7496C 2.50048 20.7321 2 18.5736 2 17.1603L -2 17.1603ZM -0.0261893 25.2014C 0.00557895 25.2846 0.0604357 25.4253 0.134524 25.613L 3.85522 24.1445C 3.78397 23.964 3.73759 23.8452 3.71143 23.7765L -0.0261893 25.2014ZM 0.134504 25.6129C 0.209219 25.8022 0.279875 25.9783 0.34129 26.1275L 4.04016 24.6049C 3.98551 24.4722 3.92576 24.3233 3.85524 24.1446L 0.134504 25.6129ZM 0.342885 26.1314C 0.43873 26.3572 0.603053 26.6653 0.736864 26.8644L 4.02217 24.5825C 4.04022 24.6085 4.04882 24.6246 4.04994 24.6267C 4.05115 24.629 4.04693 24.6213 4.03857 24.6011L 0.342885 26.1314ZM 0.686905 26.7888C 1.00504 27.2943 1.68384 28 2.78576 28L 2.78576 24C 3.13433 24 3.45035 24.1119 3.69374 24.2777C 3.91507 24.4284 4.02933 24.5901 4.07212 24.658L 0.686905 26.7888ZM 2.78576 28C 3.5073 28 4.23042 27.6911 4.71942 27.0473L 1.53417 24.6278C 1.67037 24.4485 1.8657 24.2748 2.11987 24.1537C 2.36978 24.0347 2.60608 24 2.78576 24L 2.78576 28ZM 4.72056 27.0458C 4.99059 26.6379 5.22835 25.8871 5.24998 25.4316L 1.24998 25.4316C 1.24998 25.2449 1.30319 24.9325 1.53304 24.6293L 4.72056 27.0458ZM 5.24998 25.4316C 5.24821 25.2497 5.22674 24.9796 5.19752 24.7473L 1.22978 25.2543C 1.23937 25.3294 1.24497 25.3831 1.24798 25.4188C 1.2513 25.4581 1.24998 25.4583 1.24998 25.4316L 5.24998 25.4316ZM 5.19758 24.7479C 5.18696 24.6646 5.1807 24.6082 5.17739 24.5735C 5.17561 24.5553 5.17533 24.5477 5.17561 24.5535C 5.17562 24.5535 5.17731 24.5785 5.17731 24.619L 1.17731 24.619C 1.17958 24.7795 1.20179 25.0329 1.22971 25.2538L 5.19758 24.7479ZM 5.173 24.4878C 5.12628 23.7808 5.10436 23.1796 5.10469 22.6205L 1.10469 22.6205C 1.10502 23.2521 1.13148 23.9845 1.18162 24.7503L 5.173 24.4878ZM 5.10469 22.6205C 5.10283 21.6126 5.17003 20.824 5.32155 20.0624L 1.39561 19.2962C 1.20888 20.2679 1.10655 21.4402 1.10469 22.6205L 5.10469 22.6205ZM 5.32145 20.0629C 5.46676 19.3035 5.62531 18.7904 5.87022 18.2841L 2.2546 16.5732C 1.89966 17.3346 1.58915 18.3216 1.3957 19.2957L 5.32145 20.0629ZM 5.8704 18.2838C 6.08916 17.8035 6.26858 17.5484 6.61659 17.2222L 3.82971 14.3528C 3.22956 14.9475 2.63543 15.7857 2.25443 16.5736L 5.8704 18.2838ZM 6.6169 17.2219C 6.9905 16.8525 7.27555 16.6414 7.6976 16.4214L 5.8098 12.8949C 5.13885 13.2599 4.40357 13.8016 3.82941 14.3531L 6.6169 17.2219ZM 7.6976 16.4214C 8.11147 16.1937 8.50274 16.0555 9.12589 15.9179L 8.24105 12.017C 7.38428 12.2151 6.48913 12.5374 5.80979 12.8949L 7.6976 16.4214ZM 9.12606 15.9179C 9.79946 15.7639 10.4093 15.6685 11.0907 15.6105L 10.745 11.6255C 9.92697 11.6976 9.04731 11.8352 8.24088 12.0171L 9.12606 15.9179ZM 11.0907 15.6105C 11.7921 15.5491 12.5544 15.5203 13.4643 15.5206L 13.4643 11.5206C 12.4783 11.521 11.543 11.5568 10.745 11.6255L 11.0907 15.6105ZM 13.4643 15.5206L 16.7143 15.5206L 16.7143 11.5206L 13.4643 11.5206L 13.4643 15.5206ZM 14.7143 13.5206L 14.7143 17.6807L 18.7143 17.6807L 18.7143 13.5206L 14.7143 13.5206ZM 14.7143 17.6807C 14.7466 18.3206 15.0953 19.242 15.4977 19.7437L 18.4818 17.0801C 18.5443 17.1501 18.6088 17.2478 18.6548 17.3697C 18.7004 17.4909 18.7143 17.6003 18.7143 17.6807L 14.7143 17.6807ZM 15.4992 19.7454C 16.0199 20.3274 16.7612 20.7206 17.6426 20.7206L 17.6426 16.7206C 17.7998 16.7206 17.9761 16.755 18.1462 16.8355C 18.3118 16.9138 18.4205 17.0115 18.4804 17.0784L 15.4992 19.7454ZM 17.6426 20.7206C 18.5237 20.7206 19.2651 20.3278 19.7861 19.7458L 16.8056 17.078C 16.8656 17.011 16.9743 16.9135 17.1396 16.8353C 17.3095 16.755 17.4857 16.7206 17.6426 16.7206L 17.6426 20.7206ZM 19.7877 19.7439L 27.2163 11.4237L 24.2325 8.75968L 16.8039 17.0799L 19.7877 19.7439ZM 27.2162 11.4237C 27.6188 10.922 27.9676 10.0006 28 9.36048L 24 9.36048C 24 9.28014 24.0139 9.1705 24.0597 9.04908C 24.1057 8.92699 24.1702 8.82937 24.2325 8.75965L 27.2162 11.4237ZM 28 9.36012C 27.9676 8.72062 27.6197 7.80034 27.2182 7.29878L 24.2308 9.95874C 24.1692 9.8895 24.1051 9.79245 24.0594 9.67102C 24.0139 9.55021 24 9.44104 24 9.36084L 28 9.36012Z"/>
</defs>
</svg>
