<svg width="26" height="26" viewBox="0 0 26 26" version="1.1" xmlns="http://www.w3.org/2000/svg" xmlns:xlink="http://www.w3.org/1999/xlink">
<title>Vector</title>
<desc>Created using Figma</desc>
<g id="Canvas" transform="translate(-1339 -389)">
<g id="Vector">
<use xlink:href="#path0_fill" transform="matrix(-1 1.22465e-16 1.22465e-16 1 1365 389)" fill="#F2994A"/>
</g>
</g>
<defs>
<path id="path0_fill" d="M 24.2589 5.39128C 23.0983 3.72691 21.5216 2.41212 19.5291 1.44725C 17.5366 0.482376 15.3602 0 13 0C 10.6399 0 8.46351 0.482376 6.47097 1.44725C 4.47843 2.41212 2.90184 3.72668 1.74109 5.39128C 0.580296 7.05576 0 8.86971 0 10.8333C 0 12.526 0.437547 14.1119 1.313 15.5902C 2.18845 17.0685 3.38527 18.31 4.90403 19.3143C 4.79752 19.7656 4.67179 20.1943 4.52666 20.6009C 4.38157 21.0071 4.25102 21.3401 4.13495 21.5997C 4.01878 21.8591 3.86175 22.147 3.6633 22.4627C 3.46516 22.7788 3.31524 23.0018 3.21366 23.1317C 3.11217 23.2615 2.94534 23.4756 2.71305 23.7748C 2.48106 24.0737 2.33104 24.2687 2.2634 24.359C 2.2536 24.3647 2.21497 24.4152 2.14728 24.5116C 2.07964 24.6074 2.0457 24.655 2.0457 24.655L 1.95865 24.8074C 1.91022 24.8916 1.88847 24.9454 1.89324 24.9677C 1.89812 24.9904 1.88847 25.0468 1.86428 25.1369C 1.84004 25.2273 1.84253 25.2951 1.87149 25.3402L 1.87149 25.3572C 1.91022 25.5489 1.98751 25.7042 2.10358 25.8227C 2.21965 25.9408 2.35046 26 2.49539 26L 2.56801 26C 3.19689 25.9095 3.74817 25.7858 4.22205 25.6277C 6.75637 24.8717 8.98115 23.5062 10.8962 21.5312C 11.6216 21.6215 12.3229 21.6666 12.9999 21.6666C 15.36 21.6666 17.5365 21.1842 19.529 20.2191C 21.5215 19.2541 23.0982 17.9398 24.2588 16.2753C 25.4197 14.611 26 12.7968 26 10.8333C 26.0001 8.86995 25.4198 7.05576 24.2589 5.39128ZM 22.6266 15.1499C 21.6155 16.4813 20.2517 17.5394 18.5349 18.3236C 16.818 19.1076 14.9728 19.5 12.9997 19.5C 12.4097 19.5 11.781 19.455 11.1136 19.3645L 10.2866 19.2632L 9.66273 19.9066C 8.47317 21.1255 7.14304 22.0902 5.67281 22.8012C 6.11768 21.8873 6.45623 20.9167 6.68847 19.89L 7.08018 18.2647L 5.81795 17.4187C 4.5605 16.5831 3.58611 15.593 2.89437 14.4475C 2.20273 13.3023 1.85706 12.0974 1.85706 10.8335C 1.85706 9.28746 2.36245 7.84875 3.37318 6.51712C 4.38421 5.1856 5.74787 4.12759 7.46483 3.34331C 9.18178 2.55898 11.0266 2.16648 13 2.16648C 14.9732 2.16648 16.818 2.5588 18.5348 3.34308C 20.2516 4.12741 21.6154 5.18537 22.6266 6.51688C 23.6373 7.84852 24.1427 9.28729 24.1427 10.8333C 24.1427 12.3792 23.6373 13.8183 22.6266 15.1499Z"/>
</defs>
</svg>
