<svg width="152" height="152" viewBox="0 0 152 152" version="1.1" xmlns="http://www.w3.org/2000/svg" xmlns:xlink="http://www.w3.org/1999/xlink">
<g id="Canvas" fill="none">
<g id="Group">
<g id="Rectangle 6">
<rect width="146" height="146" rx="18" stroke-width="5" stroke-dasharray="30 30" transform="translate(3 3)" stroke="white"/>
</g>
<g id="photography">
<g id="Group_2">
<g id="Group_3">
<g id="Group_4">
<g id="Vector">
<path d="M 2.43324 19.4665C 3.77718 19.4665 4.86648 18.3772 4.86648 17.0332C 4.87446 10.317 10.317 4.87446 17.0332 4.86648C 18.3772 4.86648 19.4665 3.77689 19.4665 2.43324C 19.4665 1.08958 18.3769 -9.74655e-07 17.0332 -9.74655e-07C 7.6305 0.0105498 0.0105507 7.6305 -4.84686e-08 17.0332C -0.000285205 18.3769 1.0893 19.4665 2.43324 19.4665Z" transform="translate(27.3335 41.9335)" fill="white"/>
</g>
<g id="Vector_2">
<path d="M 17.0332 14.6C 10.317 14.592 4.87446 9.14952 4.86648 2.43324C 4.86648 1.0893 3.77689 3.48091e-06 2.43324 3.48091e-06C 1.0893 3.48091e-06 -1.04427e-07 1.0893 -1.04427e-07 2.43324C 0.0105507 11.836 7.6305 19.4559 17.0332 19.4665C 18.3772 19.4665 19.4665 18.3772 19.4665 17.0332C 19.4665 15.6893 18.3769 14.6 17.0332 14.6Z" transform="translate(27.3335 90.6)" fill="white"/>
</g>
<g id="Vector_3">
<path d="M 17.0335 3.71855e-06C 16.3882 -0.000281438 15.7691 0.256072 15.3126 0.712607C 14.8564 1.16886 14.6 1.78793 14.6 2.43353C 14.592 9.14981 9.14953 14.5923 2.43324 14.6003C 1.0893 14.6003 -3.75938e-06 15.6896 -3.75938e-06 17.0335C -3.75938e-06 18.3775 1.0893 19.4668 2.43324 19.4668C 11.836 19.4562 19.4559 11.8363 19.4665 2.43353C 19.4668 1.78822 19.2104 1.16914 18.7539 0.712607C 18.2973 0.256072 17.6791 -0.000281438 17.0335 3.71855e-06Z" transform="translate(105.2 90.6)" fill="white"/>
</g>
<g id="Vector_4">
<path d="M 2.43324 4.86648C 9.14953 4.87446 14.592 10.317 14.6 17.0332C 14.6 18.3772 15.6893 19.4665 17.0332 19.4665C 18.3772 19.4665 19.4665 18.3772 19.4665 17.0332C 19.4559 7.6305 11.836 0.0105498 2.43324 -9.74655e-07C 1.0893 -9.74655e-07 -1.74046e-06 1.0893 -1.74046e-06 2.43324C -1.74046e-06 3.77718 1.08959 4.86648 2.43324 4.86648Z" transform="translate(105.2 41.9335)" fill="white"/>
</g>
<g id="Vector_5">
<path d="M 77.8668 51.0997L 77.8668 17.0332C 77.8625 13.0034 74.5966 9.73752 70.5668 9.73324L 53.0003 9.73324L 51.0276 1.84268C 50.7564 0.759657 49.7831 -9.74655e-07 48.6668 -9.74655e-07L 29.2 -9.74655e-07C 28.0836 -9.74655e-07 27.1104 0.759657 26.8392 1.84268L 24.8665 9.73324L 7.3 9.73324C 3.27017 9.73752 0.00427832 13.0034 9.74655e-07 17.0332L 9.74655e-07 51.1C 0.00427832 55.1298 3.27017 58.3957 7.3 58.4L 70.5668 58.4C 74.5966 58.3954 77.8625 55.1295 77.8668 51.0997ZM 31.1 4.86648L 46.7671 4.86648L 47.9838 9.73324L 29.8835 9.73324L 31.1 4.86648ZM 4.86676 51.0997L 4.86676 17.0332C 4.86847 15.6902 5.95691 14.6017 7.3 14.6L 70.5668 14.6C 71.9099 14.6017 72.9983 15.6902 73 17.0332L 73 51.1C 72.9983 52.4431 71.9099 53.5315 70.5668 53.5332L 7.30029 53.5332C 5.95691 53.5315 4.86847 52.4431 4.86676 51.0997Z" transform="translate(37.0665 41.9335)" fill="white"/>
</g>
<g id="Vector_6">
<path d="M 14.6 8.70228e-07C 6.53664 8.70228e-07 8.70228e-07 6.53664 8.70228e-07 14.6C 8.70228e-07 22.6634 6.53664 29.2 14.6 29.2C 22.6634 29.2 29.2 22.6634 29.2 14.6C 29.1912 6.54034 22.6597 0.00884071 14.6 8.70228e-07ZM 14.6 24.3332C 9.22452 24.3332 4.86676 19.9755 4.86676 14.6C 4.86676 9.22452 9.22452 4.86676 14.6 4.86676C 19.9755 4.86676 24.3332 9.22452 24.3332 14.6C 24.3272 19.9729 19.9729 24.3272 14.6 24.3332Z" transform="translate(61.4 61.4)" fill="white"/>
</g>
</g>
</g>
</g>
</g>
</g>
</g>
</svg>

