<svg id="Capa_1" data-name="Capa 1" xmlns="http://www.w3.org/2000/svg" viewBox="0 0 497.71 512"><defs><style>.cls-1{fill:#f2994a;}</style></defs><title>upvote-filled</title><path class="cls-1" d="M489.92,348.08c10.49-13.38,15.52-27.73,14.88-42.51-.64-16.27-7.92-29-13.92-36.83,7-17.35,9.64-44.65-13.6-65.85-17-15.52-45.93-22.48-86-20.56a336,336,0,0,0-52.68,6.75h-.11c-5.35,1-11,2.14-16.81,3.43-.43-6.85.75-23.88,13.38-62.21,15-45.61,14.13-80.52-2.78-103.86C314.54,1.93,286.17,0,277.82,0a26.89,26.89,0,0,0-20.66,9.42c-11.88,13.81-10.49,39.29-9,51.07C234,98.4,194.41,191.33,160.9,217.13a11.46,11.46,0,0,0-1.71,1.5,115,115,0,0,0-21,31.48,44.18,44.18,0,0,0-21.2-5.35H51.69A44.57,44.57,0,0,0,7.15,289.3v174a44.57,44.57,0,0,0,44.54,44.54H117a44.45,44.45,0,0,0,25.7-8.14l25.16,3c3.85.54,72.38,9.21,142.72,7.82,12.74,1,24.73,1.5,35.87,1.5,19.17,0,35.87-1.5,49.79-4.5,32.76-7,55.14-20.88,66.49-41.33a65.53,65.53,0,0,0,7.28-41c21.31-19.27,25.05-40.58,24.3-55.57A72.32,72.32,0,0,0,489.92,348.08ZM51.69,478.92a15.65,15.65,0,0,1-15.63-15.63V289.19a15.65,15.65,0,0,1,15.63-15.63H117a15.65,15.65,0,0,1,15.63,15.63v174A15.65,15.65,0,0,1,117,478.81H51.69Z" transform="translate(-7.15 0)"/></svg>